<?xml version="1.0" encoding="UTF-8"?>
<svg xmlns="http://www.w3.org/2000/svg" xmlns:xlink="http://www.w3.org/1999/xlink" width="32px" height="32px" viewBox="0 0 32 32" version="1.1">
<g id="surface1">
<path style="fill-rule:evenodd;fill:rgb(86.666667%,85.490196%,27.058824%);fill-opacity:1;stroke-width:4;stroke-linecap:butt;stroke-linejoin:miter;stroke:rgb(0%,0%,0%);stroke-opacity:1;stroke-miterlimit:4;" d="M 642 130 L 642 254 C 779.875 254.75 904.875 328.375 973.375 445.25 L 1080.75 383.25 C 990.25 228.25 824.75 130.75 642 130 Z M 642 130 " transform="matrix(0.03125,0,0,0.03125,-4,-4)"/>
<path style="fill-rule:evenodd;fill:rgb(90.588235%,46.27451%,16.470588%);fill-opacity:1;stroke-width:4;stroke-linecap:butt;stroke-linejoin:miter;stroke:rgb(0%,0%,0%);stroke-opacity:1;stroke-miterlimit:4;" d="M 1082.75 386.75 L 975.375 448.75 C 1008.375 506.5 1026 572 1026 640 C 1026 708 1008.375 773.5 975.375 831.25 L 1082.75 893.25 C 1126.625 816.875 1150 730.125 1150 640 C 1150 549.875 1126.625 463.125 1082.75 386.75 Z M 1082.75 386.75 " transform="matrix(0.03125,0,0,0.03125,-4,-4)"/>
<path style="fill-rule:evenodd;fill:rgb(18.823529%,29.019608%,58.823529%);fill-opacity:1;stroke-width:4;stroke-linecap:butt;stroke-linejoin:miter;stroke:rgb(0%,0%,0%);stroke-opacity:1;stroke-miterlimit:4;" d="M 973.375 834.75 C 904.875 951.625 779.875 1025.25 642 1026 L 642 1150 C 824.75 1149.25 990.25 1051.75 1080.75 896.75 Z M 973.375 834.75 " transform="matrix(0.03125,0,0,0.03125,-4,-4)"/>
<path style="fill-rule:evenodd;fill:rgb(93.333333%,93.333333%,92.54902%);fill-opacity:1;stroke-width:4;stroke-linecap:butt;stroke-linejoin:miter;stroke:rgb(0%,0%,0%);stroke-opacity:1;stroke-miterlimit:4;" d="M 638 1026 C 500.125 1025.25 375.125 951.625 306.625 834.75 L 199.25 896.75 C 289.75 1051.75 455.25 1149.25 638 1150 Z M 638 1026 " transform="matrix(0.03125,0,0,0.03125,-4,-4)"/>
<path style="fill-rule:evenodd;fill:rgb(87.843137%,15.686275%,14.901961%);fill-opacity:1;stroke-width:4;stroke-linecap:butt;stroke-linejoin:miter;stroke:rgb(0%,0%,0%);stroke-opacity:1;stroke-miterlimit:4;" d="M 197.25 386.75 C 153.375 463.125 130 549.875 130 640 C 130 730.125 153.375 816.875 197.25 893.25 L 304.625 831.25 C 271.625 773.5 254 708 254 640 C 254 572 271.625 506.5 304.625 448.75 Z M 197.25 386.75 " transform="matrix(0.03125,0,0,0.03125,-4,-4)"/>
<path style="fill-rule:evenodd;fill:rgb(23.921569%,61.176471%,27.45098%);fill-opacity:1;stroke-width:4;stroke-linecap:butt;stroke-linejoin:miter;stroke:rgb(0%,0%,0%);stroke-opacity:1;stroke-miterlimit:4;" d="M 638 130 C 455.25 130.75 289.75 228.25 199.25 383.25 L 306.625 445.25 C 375.125 328.375 500.125 254.75 638 254 Z M 638 130 " transform="matrix(0.03125,0,0,0.03125,-4,-4)"/>
<path style="fill:none;stroke-width:12;stroke-linecap:butt;stroke-linejoin:miter;stroke:rgb(0%,0%,0%);stroke-opacity:1;stroke-miterlimit:4;" d="M 640 134 C 360.5 134 134 360.5 134 640 C 134 919.5 360.5 1146 640 1146 C 919.5 1146 1146 919.5 1146 640 C 1146 360.5 919.5 134 640 134 Z M 640 250 C 855.375 250 1030 424.625 1030 640 C 1030 855.375 855.375 1030 640 1030 C 424.625 1030 250 855.375 250 640 C 250 424.625 424.625 250 640 250 Z M 640 250 " transform="matrix(0.03125,0,0,0.03125,-4,-4)"/>
<path style="fill-rule:evenodd;fill:rgb(87.843137%,15.686275%,14.901961%);fill-opacity:1;stroke-width:4;stroke-linecap:butt;stroke-linejoin:miter;stroke:rgb(0%,0%,0%);stroke-opacity:1;stroke-miterlimit:4;" d="M 743.857603 288.748333 L 415.732603 478.123333 L 415.732603 857.248333 L 743.857603 667.873333 Z M 743.857603 288.748333 " transform="matrix(0.03125,0,0,0.03125,3.082575,1.093802)"/>
<path style="fill-rule:evenodd;fill:rgb(86.666667%,85.490196%,27.058824%);fill-opacity:1;stroke-width:4;stroke-linecap:butt;stroke-linejoin:miter;stroke:rgb(0%,0%,0%);stroke-opacity:1;stroke-miterlimit:4;" d="M 82.857603 288.248333 L 82.857603 667.873333 L 411.732603 857.748333 L 411.732603 478.123333 Z M 413.607603 860.498333 L 413.482603 860.748333 L 413.232603 860.748333 L 412.357603 859.248333 L 412.732603 858.998333 Z M 413.607603 860.498333 " transform="matrix(0.03125,0,0,0.03125,3.082575,1.093802)"/>
<path style="fill-rule:evenodd;fill:rgb(18.823529%,29.019608%,58.823529%);fill-opacity:1;stroke-width:4;stroke-linecap:butt;stroke-linejoin:miter;stroke:rgb(0%,0%,0%);stroke-opacity:1;stroke-miterlimit:4;" d="M 413.357603 95.248333 L 84.982603 284.873333 L 413.732603 474.748333 L 742.107603 285.123333 Z M 745.732603 284.998333 L 745.857603 285.123333 L 745.732603 285.248333 L 743.857603 285.248333 L 743.857603 284.998333 Z M 745.732603 284.998333 " transform="matrix(0.03125,0,0,0.03125,3.082575,1.093802)"/>
<path style="fill-rule:evenodd;fill:rgb(100%,100%,100%);fill-opacity:1;stroke-width:8;stroke-linecap:butt;stroke-linejoin:miter;stroke:rgb(0%,0%,0%);stroke-opacity:1;stroke-miterlimit:4;" d="M 269.107603 226.623333 C 257.232603 226.623333 246.482603 227.498333 245.482603 228.123333 C 243.357603 229.498333 254.232603 253.373333 295.607603 337.748333 C 317.982603 383.123333 320.732603 387.248333 330.607603 390.873333 C 337.732603 393.623333 351.232603 392.748333 358.357603 388.998333 C 361.482603 387.498333 364.857603 384.748333 365.982603 382.998333 C 367.107603 381.123333 377.982603 360.748333 389.982603 337.748333 C 401.982603 314.623333 412.232603 295.873333 412.732603 295.873333 C 413.357603 295.873333 423.482603 315.123333 435.607603 338.873333 C 450.732603 368.373333 459.107603 383.248333 462.232603 385.998333 C 471.357603 394.123333 488.607603 395.123333 499.107603 387.873333 C 504.232603 384.248333 507.607603 377.873333 543.232603 307.248333 C 564.357603 265.123333 581.232603 229.998333 580.857603 228.998333 C 580.232603 227.373333 575.732603 226.623333 557.607603 226.623333 C 545.232603 226.623333 534.482603 227.248333 533.732603 227.748333 C 532.857603 228.373333 520.857603 251.498333 507.107603 279.123333 C 493.107603 307.123333 481.107603 328.873333 480.482603 328.123333 C 479.857603 327.498333 469.982603 308.748333 458.357603 286.373333 C 446.857603 263.873333 435.607603 243.248333 433.732603 240.748333 C 424.357603 228.123333 402.107603 228.123333 391.857603 240.373333 C 389.982603 242.623333 378.607603 263.373333 366.357603 286.748333 C 354.232603 310.123333 343.982603 329.373333 343.607603 329.373333 C 343.107603 329.373333 332.107603 307.123333 318.857603 280.248333 C 305.607603 253.498333 293.732603 230.623333 292.607603 229.373333 C 290.857603 227.248333 287.982603 226.623333 269.107603 226.623333 Z M 269.107603 226.623333 " transform="matrix(0.03125,0,0,0.03125,3.082575,1.093802)"/>
<path style="fill-rule:evenodd;fill:rgb(100%,100%,100%);fill-opacity:1;stroke-width:8;stroke-linecap:butt;stroke-linejoin:miter;stroke:rgb(0%,0%,0%);stroke-opacity:1;stroke-miterlimit:4;" d="M 170.607603 420.248333 C 159.732603 420.623333 152.232603 426.373333 147.357603 437.248333 C 142.607603 448.123333 141.607603 459.498333 141.732603 511.123333 C 141.732603 578.498333 144.357603 596.498333 158.357603 620.623333 C 165.232603 632.248333 184.482603 651.498333 197.232603 659.748333 C 202.232603 662.998333 235.232603 681.623333 270.607603 700.748333 C 317.482603 726.373333 335.107603 735.248333 336.357603 734.248333 C 337.607603 733.248333 337.857603 726.373333 337.857603 708.373333 C 337.857603 686.998333 337.732603 683.498333 335.607603 680.998333 C 334.232603 679.498333 305.982603 663.373333 272.857603 645.248333 C 207.357603 609.498333 201.357603 605.998333 192.607603 597.373333 C 182.107603 586.873333 182.107603 586.373333 181.607603 532.748333 C 181.107603 486.748333 181.232603 485.248333 183.857603 483.373333 C 189.482603 479.248333 188.482603 478.873333 268.607603 523.248333 C 338.857603 561.998333 335.107603 560.123333 336.732603 557.498333 C 337.482603 556.373333 337.857603 544.248333 337.857603 530.873333 C 337.857603 509.498333 337.732603 506.248333 335.607603 503.873333 C 332.732603 500.623333 203.607603 428.748333 193.357603 424.748333 C 184.607603 421.248333 176.982603 419.998333 170.607603 420.248333 Z M 170.607603 420.248333 " transform="matrix(0.03125,0,0,0.03125,3.082575,1.093802)"/>
<path style="fill-rule:evenodd;fill:rgb(100%,100%,100%);fill-opacity:1;stroke-width:8;stroke-linecap:butt;stroke-linejoin:miter;stroke:rgb(0%,0%,0%);stroke-opacity:1;stroke-miterlimit:4;" d="M 597.982603 447.248333 C 604.232603 446.873333 607.982603 452.123333 619.607603 474.248333 C 626.357603 486.998333 645.857603 523.748333 662.982603 555.998333 C 679.982603 588.123333 693.607603 615.498333 693.357603 616.748333 C 693.107603 617.998333 685.732603 622.873333 676.982603 627.748333 L 661.482603 636.873333 L 659.107603 633.873333 C 657.857603 632.248333 652.357603 623.373333 647.107603 613.873333 L 646.607603 612.998333 C 641.107603 602.998333 636.107603 594.748333 635.607603 594.748333 C 634.982603 594.748333 615.107603 605.873333 590.732603 619.373333 L 546.232603 644.123333 L 533.732603 679.873333 L 521.482603 715.998333 L 513.107603 720.998333 C 495.482603 731.623333 483.607603 737.498333 482.732603 736.123333 C 482.232603 735.373333 489.107603 714.373333 497.982603 689.373333 C 506.732603 664.498333 527.607603 604.998333 544.357603 557.498333 C 561.107603 509.873333 576.232603 468.123333 577.732603 464.623333 C 581.482603 456.748333 589.857603 448.748333 595.232603 447.623333 C 596.357603 447.373333 596.982603 447.248333 597.982603 447.248333 Z M 591.857603 514.873333 C 591.232603 514.623333 585.232603 530.748333 578.607603 550.248333 C 569.107603 577.873333 566.732603 585.123333 568.607603 584.498333 C 573.357603 582.623333 614.607603 560.248333 615.482603 558.998333 C 616.232603 557.623333 593.857603 515.498333 591.857603 514.873333 Z M 591.857603 514.873333 " transform="matrix(0.03125,0,0,0.03125,3.082575,1.093802)"/>
<path style="fill:none;stroke-width:12;stroke-linecap:butt;stroke-linejoin:round;stroke:rgb(0%,0%,0%);stroke-opacity:1;stroke-miterlimit:4;" d="M 413.357603 92.998333 L 745.857603 284.998333 L 745.857603 668.998333 L 413.357603 860.998333 L 80.857603 668.998333 L 80.857603 284.998333 Z M 413.357603 92.998333 " transform="matrix(0.03125,0,0,0.03125,3.082575,1.093802)"/>
</g>
</svg>
